# xmcd
#
# Track frame offsets:
#	150
#	11095
#	22040
#
# Disc length: 434 seconds
#
# Revision: 0
# Processed by: cddbd v1.5.1PL0 Copyright (c) Steve Scherf et al.
# Submitted via: audiograbber 1.83.01
#
DISCID=1c01b003
DTITLE=Joe Nichols - What A Guy's Gotta Do - CD Single
DYEAR=2004
DGENRE=Country
TTITLE0=What A Guy's Gotta Do 1
TTITLE1=What A Guy's Gotta Do 2
TTITLE2=What A Guy's Gotta Do 3
EXTD=
EXTT0=
EXTT1=
EXTT2=
PLAYORDER=
